PathFileType	4	(X/Y/Z)	D:/ViconDB/Teaching_2017/Workshops/171025_A1_Demo01/Demo/171025_Guy_ROM_body_01.trc
DataRate	CameraRate	NumFrames	NumMarkers	Units	OrigDataRate	OrigDataStartFrame	OrigNumFrames
120.000000	120.000000	5	130	mm	120.000000	61	120
Frame#	Time	System			Vantage_5_2106396			Vantage_5_2106443			Vantage_5_2106435			Vantage_5_2106735			Vantage_5_2106428			Vantage_5_2106437			Vantage_5_2106434			Vantage_5_2106460			Vantage_5_2106228			Vantage_5_2106436			Vantage_5_2106467			Unlabeled_Markers			Labeling			Hips			Spine			Head			Head_End			LeftShoulder			LeftArm			LeftForeArm			LeftHand			LeftHandThumbEnd			LeftHandEnd			RightShoulder			RightArm			RightForeArm			RightHand			RightHandThumbEnd			RightHandEnd			LeftUpLeg			LeftLeg			LeftFoot			LeftToeBase			LeftToeEnd			RightUpLeg			RightLeg			RightFoot			RightToeBase			RightToeEnd			ARIEL			LFHD			RFHD			LBHD			RBHD			C7			T10			CLAV			STRN			LBSH			LFSH			LUPA			LELB			LIEL			LWRE			LOWR			LIWR			LOHAND			LIHAND			RBSH			RFSH			RUPA			RELB			RIEL			RWRE			ROWR			RIWR			ROHAND			RIHAND			LFWT			LMWT			LBWT			LHIP			LKNE			LKNI			LSHN			LANK			LHEL			LMT5			LMT1			LTOE			RFWT			RMWT			RBWT			RHIP			RKNE			RKNI			RSHN			RANK			RHEL			RMT5			RMT1			RTOE			Solving			Hips			Spine			Spine1			Spine2			Spine3			Neck			Head			HeadEnd			RightShoulder			RightArm			RightForeArm			RightForeArmRoll			RightHand			RightHandEnd			R_FingersEnd			RightHandThumb1			RightHandThumb2			LeftShoulder			LeftArm			LeftForeArm			LeftForeArmRoll			LeftHand			LeftHandEnd			L_FingersEnd			LeftHandThumb1			LeftHandThumb2			RightUpLeg			RightLeg			RightFoot			RightToeBase			RightToeBaseEnd			LeftUpLeg			LeftLeg			LeftFoot			LeftToeBase			LeftToeBaseEnd			
		X0	Y0	Z0	X1	Y1	Z1	X2	Y2	Z2	X3	Y3	Z3	X4	Y4	Z4	X5	Y5	Z5	X6	Y6	Z6	X7	Y7	Z7	X8	Y8	Z8	X9	Y9	Z9	X10	Y10	Z10	X11	Y11	Z11	X12	Y12	Z12	X13	Y13	Z13	X14	Y14	Z14	X15	Y15	Z15	X16	Y16	Z16	X17	Y17	Z17	X18	Y18	Z18	X19	Y19	Z19	X20	Y20	Z20	X21	Y21	Z21	X22	Y22	Z22	X23	Y23	Z23	X24	Y24	Z24	X25	Y25	Z25	X26	Y26	Z26	X27	Y27	Z27	X28	Y28	Z28	X29	Y29	Z29	X30	Y30	Z30	X31	Y31	Z31	X32	Y32	Z32	X33	Y33	Z33	X34	Y34	Z34	X35	Y35	Z35	X36	Y36	Z36	X37	Y37	Z37	X38	Y38	Z38	X39	Y39	Z39	X40	Y40	Z40	X41	Y41	Z41	X42	Y42	Z42	X43	Y43	Z43	X44	Y44	Z44	X45	Y45	Z45	X46	Y46	Z46	X47	Y47	Z47	X48	Y48	Z48	X49	Y49	Z49	X50	Y50	Z50	X51	Y51	Z51	X52	Y52	Z52	X53	Y53	Z53	X54	Y54	Z54	X55	Y55	Z55	X56	Y56	Z56	X57	Y57	Z57	X58	Y58	Z58	X59	Y59	Z59	X60	Y60	Z60	X61	Y61	Z61	X62	Y62	Z62	X63	Y63	Z63	X64	Y64	Z64	X65	Y65	Z65	X66	Y66	Z66	X67	Y67	Z67	X68	Y68	Z68	X69	Y69	Z69	X70	Y70	Z70	X71	Y71	Z71	X72	Y72	Z72	X73	Y73	Z73	X74	Y74	Z74	X75	Y75	Z75	X76	Y76	Z76	X77	Y77	Z77	X78	Y78	Z78	X79	Y79	Z79	X80	Y80	Z80	X81	Y81	Z81	X82	Y82	Z82	X83	Y83	Z83	X84	Y84	Z84	X85	Y85	Z85	X86	Y86	Z86	X87	Y87	Z87	X88	Y88	Z88	X89	Y89	Z89	X90	Y90	Z90	X91	Y91	Z91	X92	Y92	Z92	X93	Y93	Z93	X94	Y94	Z94	X95	Y95	Z95	X96	Y96	Z96	X97	Y97	Z97	X98	Y98	Z98	X99	Y99	Z99	X100	Y100	Z100	X101	Y101	Z101	X102	Y102	Z102	X103	Y103	Z103	X104	Y104	Z104	X105	Y105	Z105	X106	Y106	Z106	X107	Y107	Z107	X108	Y108	Z108	X109	Y109	Z109	X110	Y110	Z110	X111	Y111	Z111	X112	Y112	Z112	X113	Y113	Z113	X114	Y114	Z114	X115	Y115	Z115	X116	Y116	Z116	X117	Y117	Z117	X118	Y118	Z118	X119	Y119	Z119	X120	Y120	Z120	X121	Y121	Z121	X122	Y122	Z122	X123	Y123	Z123	X124	Y124	Z124	X125	Y125	Z125	X126	Y126	Z126	X127	Y127	Z127	X128	Y128	Z128	X129	Y129	Z129	
61	0.508333																																											-5.558564	971.179199	-12.725265																																																																												-34.743832	1843.372070	-16.028101	26.433054	1794.458252	75.132088	-100.720329	1789.256104	55.993324	66.171974	1734.385376	-41.509686	-89.902992	1716.972046	-73.653023	-6.685507	1553.637207	-99.034050	-0.383238	1375.203735	-128.715225	-9.796036	1484.089233	76.395889	-3.058270	1347.636841	118.975105	143.336121	1501.527100	-110.555817	127.176941	1506.480103	28.993547	238.449051	1356.285400	-32.141373	263.374084	1168.531494	-6.337913	237.787064	1221.405151	-65.866600	260.558746	1054.921021	54.984222	263.402802	926.995605	39.147804	209.432236	933.991394	103.847343	275.900360	872.709595	96.952820	257.183990	888.958191	123.377846	-168.785782	1501.699829	-107.835068	-155.680603	1508.919067	10.172272	-257.420746	1361.984375	-49.282181	-292.480469	1167.546387	-50.213692	-238.999359	1207.857910	-104.693184	-301.154541	1048.434814	-10.091148	-284.411041	919.816895	-9.240774	-258.409454	945.155090	64.932297	-305.252319	866.029846	46.660355	-294.280670	872.318054	86.188103	119.296379	1090.015991	90.133499	185.422333	981.711914	-18.866154	118.640579	1171.986572	-95.513191	183.894592	662.601135	-14.822225	176.089676	549.361206	-12.511893	114.879395	629.892029	51.561672	196.499252	332.786835	-92.736580	179.627853	124.614113	-134.734421	129.291641	68.645500	-191.207260	208.128586	79.294533	42.622055	126.971970	85.624870	51.864243	163.631989	83.481133	96.472466	-140.363647	1093.219482	91.107880	-201.255646	1011.929443	-60.014660	-116.437721	1157.853882	-111.609421	-135.450684	753.090271	67.579994	-185.054169	565.960815	-19.622040	-160.239365	650.537842	43.606079	-198.428940	413.248627	-92.499596	-178.856064	127.596733	-146.392334	-116.192978	76.104668	-194.554504	-204.279556	76.929596	27.227385	-124.264755	76.135727	43.023689	-178.297653	79.207298	83.003204				-5.587761	970.807800	-19.961967																																																																																																																																				
62	0.516667																																											-5.550307	971.174377	-12.730154																																																																												-34.788651	1843.364380	-15.847361	26.397701	1794.424438	75.248512	-100.753624	1789.251099	56.176891	66.104286	1734.386841	-41.371639	-89.886368	1716.987305	-73.529434	-6.697328	1553.664795	-98.971245	-0.412191	1375.212158	-128.665970	-9.778336	1484.107544	76.446159	-3.032822	1347.630005	118.999619	143.294052	1501.537964	-110.529015	127.160179	1506.479004	29.003521	238.429245	1356.276733	-32.173542	263.364990	1168.523193	-6.425952	237.766922	1221.400513	-65.914932	260.530548	1054.878540	54.877724	263.425720	926.952759	38.985588	209.568146	934.026306	103.807304	275.939331	872.683960	96.822449	257.258362	888.918213	123.249092	-168.910995	1501.505737	-107.757820	-155.689621	1508.926147	10.249717	-257.374725	1361.998413	-49.201973	-292.423004	1167.527710	-50.240082	-238.926361	1207.832764	-104.712143	-301.041748	1048.407349	-10.104918	-284.247467	919.766235	-9.283072	-258.211792	945.146912	64.897362	-305.077393	866.021973	46.600819	-294.313629	872.423035	86.267723	119.284615	1090.008423	90.133972	185.363388	981.668823	-18.925056	118.618896	1171.988037	-95.529411	183.870377	662.579834	-14.914427	176.053604	549.317383	-12.610851	114.866745	629.924438	51.475067	196.458649	332.762024	-92.801216	179.604599	124.578209	-134.767654	129.302292	68.658272	-191.221405	208.127380	79.306465	42.571465	126.977394	85.630341	51.838223	163.650375	83.492577	96.464249	-140.368851	1093.263794	91.096802	-201.258911	1011.898621	-60.046448	-116.444519	1157.849121	-111.594376	-135.447327	753.124817	67.572823	-185.058975	565.985535	-19.670988	-160.216782	650.566956	43.592678	-198.398758	413.261444	-92.554214	-178.818649	127.587173	-146.393692	-116.215858	76.112923	-194.559357	-204.276505	76.959015	27.248993	-124.268745	76.132950	43.002514	-178.281784	79.215134	82.991890				-5.613008	970.831116	-19.955135																																																																																																																																				
63	0.525000																																											-5.711290	971.181274	-12.787395																																																																												-34.844707	1843.356812	-15.706265	26.355652	1794.414307	75.376465	-100.829910	1789.192505	56.290070	66.116554	1734.433472	-41.338638	-89.976547	1716.980347	-73.423584	-6.752510	1553.668457	-98.945236	-0.469344	1375.208130	-128.697800	-9.840934	1484.096069	76.442558	-3.092157	1347.609985	118.979187	143.259186	1501.550781	-110.531998	127.125198	1506.491577	29.026718	238.404587	1356.307983	-32.206566	263.362976	1168.547852	-6.489697	237.746277	1221.421143	-65.978889	260.591095	1054.907837	54.793453	263.446442	926.963806	38.868401	209.628860	934.042725	103.685730	275.994476	872.708496	96.702820	257.265594	888.908142	123.141464	-168.935349	1501.464233	-107.717979	-155.774689	1508.863770	10.217110	-257.400208	1361.946289	-49.187778	-292.310730	1167.431152	-50.218304	-238.892715	1207.812866	-104.710808	-300.982758	1048.335815	-10.154986	-284.104340	919.687317	-9.352523	-258.101868	945.071899	64.815453	-304.959564	865.944519	46.505600	-294.015350	872.230835	86.111755	119.211388	1090.027710	90.089363	185.361328	981.710388	-19.002060	118.567223	1171.984741	-95.556580	183.845947	662.625061	-14.998247	176.024750	549.357361	-12.666677	114.778290	629.920410	51.360897	196.420242	332.791473	-92.842720	179.548828	124.535049	-134.794174	129.301025	68.602501	-191.203568	208.104996	79.325195	42.608574	126.932503	85.611870	51.816235	163.627579	83.477997	96.439194	-140.408859	1093.219116	91.036072	-201.312531	1011.858459	-60.031853	-116.532486	1157.867432	-111.618858	-135.523972	753.125488	67.508820	-185.108429	565.962524	-19.731445	-160.242569	650.559937	43.561352	-198.434570	413.169891	-92.547050	-178.875458	127.558899	-146.371262	-116.252319	76.064491	-194.574112	-204.330872	76.916084	27.213202	-124.279892	76.113594	42.991119	-178.308289	79.175957	82.998039				-5.649985	970.816711	-20.022623																																																																																																																																				
64	0.533333																																											-5.734495	971.158142	-12.820910																																																																												-34.882332	1843.329224	-15.582708	26.359850	1794.430054	75.519531	-100.870918	1789.113770	56.343811	66.099510	1734.486328	-41.263248	-90.028328	1716.970459	-73.315567	-6.816178	1553.629150	-98.915726	-0.524256	1375.185059	-128.679352	-9.871668	1484.086426	76.447350	-3.153864	1347.583252	118.938484	143.207733	1501.556030	-110.539078	127.132904	1506.543579	29.049318	238.394897	1356.363159	-32.226875	263.386780	1168.585693	-6.553015	237.719986	1221.452881	-66.071785	260.631958	1054.945923	54.702671	263.492706	926.989136	38.735214	209.689514	934.063354	103.528633	276.073517	872.779785	96.581352	257.317627	888.920288	123.027451	-168.982834	1501.438843	-107.685555	-155.864639	1508.799683	10.150668	-257.425964	1361.878296	-49.242496	-292.264679	1167.331543	-50.270275	-238.863693	1207.755859	-104.725433	-300.924225	1048.224609	-10.240804	-283.976288	919.573547	-9.424279	-257.940399	945.026001	64.712700	-304.826080	865.841064	46.372646	-293.860596	872.070679	86.004288	119.190460	1090.040283	90.046471	185.321899	981.736938	-19.039785	118.524071	1171.948242	-95.586525	183.831573	662.693542	-15.062465	175.987503	549.419189	-12.714643	114.726204	629.957458	51.289398	196.373306	332.821198	-92.891747	179.511856	124.556259	-134.834976	129.222641	68.559021	-191.230240	208.078323	79.333305	42.588791	126.874008	85.579338	51.791004	163.576981	83.447144	96.399635	-140.485214	1093.190186	90.953766	-201.388840	1011.790955	-60.084858	-116.551926	1157.875000	-111.770454	-135.568344	753.161743	67.469948	-185.166824	565.901611	-19.793507	-160.318115	650.495911	43.463890	-198.465271	413.111694	-92.603058	-178.906342	127.477486	-146.405838	-116.824982	75.870636	-194.262939	-204.356842	76.861481	27.184162	-124.345131	76.039429	42.956654	-178.348953	79.124687	82.952263				-5.632698	970.773987	-20.103413																																																																																																																																				
65	0.541667																																											-5.761057	971.163208	-12.878301																																																																												-34.926861	1843.342285	-15.430273	26.352154	1794.426270	75.646942	-100.929031	1789.060059	56.444229	65.976646	1734.484863	-41.133545	-90.072205	1716.961792	-73.158035	-6.869569	1553.629395	-98.877228	-0.542587	1375.192627	-128.600891	-9.908831	1484.077515	76.462105	-3.200710	1347.561401	118.928917	143.177032	1501.572510	-110.517006	127.128677	1506.570068	29.061266	238.391144	1356.400757	-32.244400	263.399963	1168.630249	-6.624749	237.715439	1221.454834	-66.129524	260.690765	1054.983276	54.615379	263.476105	926.993164	38.591179	210.566605	934.859497	104.061096	276.122925	872.806396	96.451500	256.733215	888.283875	122.541222	-169.029068	1501.421997	-107.638832	-155.936325	1508.745972	10.108290	-257.486603	1361.846069	-49.249084	-292.231445	1167.263550	-50.249516	-238.874283	1207.744263	-104.723351	-300.845673	1048.162598	-10.298222	-283.885590	919.521484	-9.448581	-257.823761	944.977661	64.639656	-304.694733	865.781372	46.294380	-293.797729	872.037964	85.967865	119.130119	1090.041992	89.998558	185.284943	981.755859	-19.078663	118.481369	1171.944092	-95.594307	183.767517	662.734680	-15.101477	175.949280	549.462524	-12.764980	114.652718	629.990051	51.230453	196.351944	332.856079	-92.938980	179.463852	124.533829	-134.864319	129.171646	68.503632	-191.205368	208.052139	79.342163	42.600498	126.823013	85.564537	51.788460	163.542648	83.455376	96.403015	-140.526962	1093.159912	90.927193	-201.422668	1011.766113	-60.073219	-116.638603	1157.923828	-111.828316	-135.628296	753.158630	67.458061	-185.250244	565.870483	-19.841103	-160.377640	650.466919	43.406414	-198.481445	413.074280	-92.622894	-178.955231	127.444504	-146.386658	-116.899864	75.848701	-194.264572	-204.402618	76.842125	27.186966	-124.416687	75.984077	42.932137	-178.404083	79.092560	82.896294				-5.690779	970.764771	-20.171915																																																																																																																																				
